<?xml version="1.0" standalone="no"?>
<svg xmlns="http://www.w3.org/2000/svg" version="1.1" xmlns:xlink="http://www.w3.org/1999/xlink" width="512" height="512" x="0" y="0" viewBox="0 0 64 64" style="enable-background:new 0 0 512 512" xml:space="preserve" class=""><rect width="64" height="64" fill="#000000" shape="square"/><g transform="matrix(1.1500000000000004,0,0,1.1500000000000004,-4.800167369842541,-4.798184108734137)"><path fill="#d8b4ca" d="M53.09 47.71a5.6 5.6 0 0 1-.54 4.79l-.13.19-.02.04a5.32 5.32 0 0 1-2.71 2.04c-.21.08-.43.13-.65.18a6.914 6.914 0 0 1-3.71-.57c-.18-.08-.36-.17-.54-.27L24.33 42.59l-4.57-2.58c-1.1-.63-2.38-.83-3.54-.65-1.17.17-2.22.73-2.89 1.62l2.39-3.18c.01-.02.02-.03.04-.05 2.5-3.27 7.07-4.72 11.52-3.99 1.6.24 3.17.78 4.64 1.6l6.32 3.56.46.26 12.62 7.3c.92.52.67-1.74.61-2.27l.74 2.23z" opacity="1" data-original="#faf158" class=""/><path fill="#c171a2" d="M51.93 44.21c.06.53.31 2.79-.61 2.27l-12.62-7.3-.67-2.03-5.91-17.87 1.59-4.77c.2-.59.46-1.16.81-1.68.46-.67.97-1.16 1.68-1.5.98-.48 3.44.2 4.31.65.01.01.03.02.04.03.72.71 1.3 1.59 1.65 2.62l9.71 29.47s0 .01.01.03l.01.05s-.01 0 0 .01q-.01.01 0 .02z" opacity="1" data-original="#ffc148" class=""/><g fill="#ff8a6b"><path d="M40.63 12.05c-.02-.01-.05-.03-.08-.04-.01-.01-.03-.02-.04-.03-.87-.45-3.33-1.13-4.31-.65-.71.34-1.22.83-1.68 1.5-.35.52-.61 1.09-.81 1.68l-1.59 4.77-4.84 14.48c-4.45-.73-9.02.72-11.52 3.99-.02.02-.03.03-.04.05l-2.39 3.18-.19-.06 8.05-24.37c1.97-5.63 7.77-8.58 13.51-7.32.37.08 4.3 1.04 5.93 2.82z" fill="#b66c99" opacity="1" data-original="#ff8a6b" class=""/><path d="m19.76 40.01 4.57 2.58-2.91 8.72a5.56 5.56 0 0 1-7.09 3.41 5.557 5.557 0 0 1-3.41-7.09l2.22-6.71.19.06c.67-.89 1.72-1.45 2.89-1.62 1.16-.18 2.44.02 3.54.65z" fill="#b66c99" opacity="1" data-original="#ff8a6b" class=""/></g></g></svg>